<?xml version="1.0" encoding="utf-8"?>
<!-- Generator: Adobe Illustrator 28.1.0, SVG Export Plug-In . SVG Version: 6.00 Build 0)  -->
<svg version="1.1" id="map" xmlns="http://www.w3.org/2000/svg" xmlns:xlink="http://www.w3.org/1999/xlink" x="0px" y="0px"
	 viewBox="0 0 600 600" style="enable-background:new 0 0 600 600;" xml:space="preserve">
<image style="overflow:visible;enable-background:new    ;" width="1200" height="1200" id="base" xlink:href="../basemaps/HD-18-basemap.png"  transform="matrix(0.5 0 0 0.5 0 0)">
</image>
<image style="overflow:visible;enable-background:new    ;" width="300" height="199" id="locator" xlink:href="../locator-insets/HD-18-locator.png"  transform="matrix(0.6677 0 0 0.6677 9.8462 460.2313)">
</image>
<g id="city-labels">
	<text transform="matrix(1 0 0 1 341.1162 229.4317)" font-family="Arial-ItalicMT, Arial" font-size="18" font-style="italic" isolation="isolate">Shelby</text>
</g>
<g id="city-labels_00000170276554699988286990000010823381572668523959_">
	<text transform="matrix(1 0 0 1 234.0142 299.9999)" font-family="Arial-ItalicMT, Arial" font-size="18" font-style="italic" isolation="isolate">Valier</text>
</g>
<g id="city-labels_00000005965421791799761320000000786670940893483440_">
	<text transform="matrix(1 0 0 1 86.2997 129.7441)" class="st2"><tspan x="0" y="0" font-family="Arial-ItalicMT, Arial" font-size="18" font-style="italic" isolation="isolate">Blackfeet</tspan><tspan x="-11" y="21.6" font-family="Arial-ItalicMT, Arial" font-size="18" font-style="italic" isolation="isolate">Reservation</tspan></text>
</g>
<g id="city-labels_00000123425975398920584910000014445637538924232633_">
	<text transform="matrix(1 0 0 1 293.7691 354.0967)" font-family="Arial-ItalicMT, Arial" font-size="18" font-style="italic" isolation="isolate">Conrad</text>
</g>
<g id="city-labels_00000132078139444748496470000016830920508296974754_">
	<text transform="matrix(1 0 0 1 370.9463 484.8252)" font-family="Arial-ItalicMT, Arial" font-size="18" font-style="italic" isolation="isolate">Dutton</text>
</g>
<g id="city-labels_00000183958270902702126160000007278155903301195428_">
	<text transform="matrix(1 0 0 1 318.1875 81.0537)" font-family="Arial-ItalicMT, Arial" font-size="18" font-style="italic" isolation="isolate">Sunburst</text>
</g>
<text id="district" transform="matrix(1 0 0 1 290.2652 314.9492)" fill="#f85028" font-family="Arial-BoldMT, Arial" font-size="48" font-weight="700" isolation="isolate">HD 18</text>
</svg>
