<?xml version="1.0" encoding="utf-8"?>
<!-- Generator: Adobe Illustrator 28.1.0, SVG Export Plug-In . SVG Version: 6.00 Build 0)  -->
<svg version="1.1" id="map" xmlns="http://www.w3.org/2000/svg" xmlns:xlink="http://www.w3.org/1999/xlink" x="0px" y="0px"
	 viewBox="0 0 600 600" style="enable-background:new 0 0 600 600;" xml:space="preserve">

<image style="overflow:visible;enable-background:new    ;" width="1200" height="1200" id="base" xlink:href="../basemaps/HD-26-basemap.png"  transform="matrix(0.5 0 0 0.5 0 0)">
</image>
<image style="overflow:visible;enable-background:new    ;" width="300" height="199" id="locator" xlink:href="../locator-insets/HD-26-locator.png"  transform="matrix(0.6677 0 0 0.6677 389.8462 460.2313)">
</image>
<g id="city-labels">
	<text transform="matrix(1 0 0 1 0.5859 347.1836)" font-family="Arial-ItalicMT, Arial" font-size="18" font-style="italic" isolation="isolate">Great</text>
	<text transform="matrix(1 0 0 1 7.5859 368.7836)" font-family="Arial-ItalicMT, Arial" font-size="18" font-style="italic" isolation="isolate">Falls</text>
</g>
<g id="city-labels_00000013171007943443870240000009915975653200726677_">
	<text transform="matrix(1 0 0 1 227.4684 235.0417)" font-family="Arial-ItalicMT, Arial" font-size="18" font-style="italic" isolation="isolate">Fort</text>
	<text transform="matrix(1 0 0 1 227.4684 256.6418)" font-family="Arial-ItalicMT, Arial" font-size="18" font-style="italic" isolation="isolate">Benton</text>
</g>
<g id="city-labels_00000160164183310776003960000010095407505061962407_">
	<text transform="matrix(1 0 0 1 307.8072 329.1885)" font-family="Arial-ItalicMT, Arial" font-size="18" font-style="italic" isolation="isolate">Geraldine</text>
</g>
<g id="city-labels_00000166650426842513627750000011935210597793146004_">
	<text transform="matrix(1 0 0 1 364.1763 87.2637)" font-family="Arial-ItalicMT, Arial" font-size="18" font-style="italic" isolation="isolate">Big Sandy</text>
</g>
<text id="district" transform="matrix(1 0 0 1 223.9644 212.211)" fill="#f85028" font-family="Arial-BoldMT, Arial" font-size="48" font-weight="700" isolation="isolate">HD 26</text>
</svg>
