<?xml version="1.0" encoding="utf-8"?>
<!-- Generator: Adobe Illustrator 28.1.0, SVG Export Plug-In . SVG Version: 6.00 Build 0)  -->
<svg version="1.1" id="map" xmlns="http://www.w3.org/2000/svg" xmlns:xlink="http://www.w3.org/1999/xlink" x="0px" y="0px"
	 viewBox="0 0 600 600" style="enable-background:new 0 0 600 600;" xml:space="preserve">

<image style="overflow:visible;enable-background:new    ;" width="1200" height="1200" id="base" xlink:href="../basemaps/HD-34-basemap.png"  transform="matrix(0.5 0 0 0.5 0 0)">
</image>
<image style="overflow:visible;enable-background:new    ;" width="300" height="199" id="locator" xlink:href="../locator-insets/HD-34-locator.png"  transform="matrix(0.6677 0 0 0.6677 389.8462 9.2313)">
</image>
<g id="city-labels">
	<text transform="matrix(1 0 0 1 358.4155 411.4629)" font-family="Arial-ItalicMT, Arial" font-size="18" font-style="italic" isolation="isolate">Ekalaka</text>
</g>
<g id="city-labels_00000173141543779230681630000000392979599630852024_">
	<text transform="matrix(1 0 0 1 252.6113 494.2354)" font-family="Arial-ItalicMT, Arial" font-size="18" font-style="italic" isolation="isolate">Broadus</text>
</g>
<g id="city-labels_00000144306373290323889930000013662701410080083117_">
	<text transform="matrix(1 0 0 1 193.2529 299)" font-family="Arial-ItalicMT, Arial" font-size="18" font-style="italic" isolation="isolate">Miles</text>
	<text transform="matrix(1 0 0 1 193.2529 320.6)" font-family="Arial-ItalicMT, Arial" font-size="18" font-style="italic" isolation="isolate">City</text>
</g>
<g id="city-labels_00000007412737445853424810000009093258808579701439_">
	<text transform="matrix(1 0 0 1 225.3418 150.5303)" font-family="Arial-ItalicMT, Arial" font-size="18" font-style="italic" isolation="isolate">Circle</text>
</g>
<g id="city-labels_00000079487421608554088820000009444131346358812546_">
	<text transform="matrix(1 0 0 1 264.2656 259.96)" font-family="Arial-ItalicMT, Arial" font-size="18" font-style="italic" isolation="isolate">Terry</text>
</g>
<g id="city-labels_00000108998566791917029050000010816705520794423703_">
	<text transform="matrix(1 0 0 1 401.9185 327.3803)" font-family="Arial-ItalicMT, Arial" font-size="18" font-style="italic" isolation="isolate">Baker</text>
</g>
<g id="city-labels_00000064352563263718116040000002403199253277844155_">
	<text transform="matrix(1 0 0 1 299.9995 300)" font-family="Arial-ItalicMT, Arial" font-size="18" font-style="italic" isolation="isolate">Ismay (Joe)</text>
</g>
<g id="city-labels_00000139256614824332527620000000665343674360076207_">
	<text transform="matrix(1 0 0 1 342.9946 323.5997)" font-family="Arial-ItalicMT, Arial" font-size="18" font-style="italic" isolation="isolate">Plevna</text>
</g>
<g id="city-labels_00000026861147071524260730000002916517668170228891_">
	<text transform="matrix(1 0 0 1 382.7456 217.5605)" font-family="Arial-ItalicMT, Arial" font-size="18" font-style="italic" isolation="isolate">Wibaux</text>
</g>
<text id="district" transform="matrix(1 0 0 1 223.4722 390.5)" fill="#f85028" font-family="Arial-BoldMT, Arial" font-size="48" font-weight="700" isolation="isolate">HD 34</text>
</svg>
