<?xml version="1.0" encoding="utf-8"?>
<!-- Generator: Adobe Illustrator 28.1.0, SVG Export Plug-In . SVG Version: 6.00 Build 0)  -->
<svg version="1.1" id="map" xmlns="http://www.w3.org/2000/svg" xmlns:xlink="http://www.w3.org/1999/xlink" x="0px" y="0px"
	 viewBox="0 0 600 600" style="enable-background:new 0 0 600 600;" xml:space="preserve">

<image style="overflow:visible;enable-background:new    ;" width="1200" height="1200" id="base" xlink:href="../basemaps/HD-75-basemap.png"  transform="matrix(0.5 0 0 0.5 0 0)">
</image>
<image style="overflow:visible;enable-background:new    ;" width="300" height="199" id="locator" xlink:href="../locator-insets/HD-75-locator.png"  transform="matrix(0.6677 0 0 0.6677 10.3296 8.5321)">
</image>
<g id="city-labels">
	<text transform="matrix(1 0 0 1 124.8711 413.6279)" font-family="Arial-ItalicMT, Arial" font-size="18" font-style="italic" isolation="isolate">Butte</text>
</g>
<g id="city-labels_00000172403825783880910090000002752828488096018821_">
	<text transform="matrix(1 0 0 1 283 69.1035)" font-family="Arial-ItalicMT, Arial" font-size="18" font-style="italic" isolation="isolate">Helena</text>
</g>
<g id="city-labels_00000110469195935954715370000015057722606121025411_">
	<text transform="matrix(1 0 0 1 281.1255 262.8232)" font-family="Arial-ItalicMT, Arial" font-size="18" font-style="italic" isolation="isolate">Boulder</text>
</g>
<g id="city-labels_00000174596405356542722170000005244551078748541348_">
	<text transform="matrix(1 0 0 1 354.8379 103)" font-family="Arial-ItalicMT, Arial" font-size="18" font-style="italic" isolation="isolate">Montana</text>
	<text transform="matrix(1 0 0 1 374.3379 124.6)" font-family="Arial-ItalicMT, Arial" font-size="18" font-style="italic" isolation="isolate">City</text>
</g>
<g id="city-labels_00000161623929077646219480000008386450926747424656_">
	<text transform="matrix(1 0 0 1 328.2412 156)" font-family="Arial-ItalicMT, Arial" font-size="18" font-style="italic" isolation="isolate">Clancy</text>
</g>
<g id="city-labels_00000085251444831414421780000011344769363466562492_">
	<text transform="matrix(1 0 0 1 265.2349 467.668)" font-family="Arial-ItalicMT, Arial" font-size="18" font-style="italic" isolation="isolate">Whitehall</text>
</g>
<text id="district" transform="matrix(1 0 0 1 232.7378 328.4688)" fill="#f85028" font-family="Arial-BoldMT, Arial" font-size="48" font-weight="700" isolation="isolate">HD 75</text>
</svg>
