<?xml version="1.0" encoding="utf-8"?>
<!-- Generator: Adobe Illustrator 28.1.0, SVG Export Plug-In . SVG Version: 6.00 Build 0)  -->
<svg version="1.1" id="map" xmlns="http://www.w3.org/2000/svg" xmlns:xlink="http://www.w3.org/1999/xlink" x="0px" y="0px"
	 viewBox="0 0 600 600" style="enable-background:new 0 0 600 600;" xml:space="preserve">
<style type="text/css">
	.st0{font-family:'Arial-ItalicMT';}
	.st1{font-size:18px;}
	.st2{fill:#F85028;}
	.st3{font-family:'Arial-BoldMT';}
	.st4{font-size:48px;}
</style>
<image style="overflow:visible;enable-background:new    ;" width="1200" height="1200" id="base" xlink:href="../basemaps/HD-29-basemap.png"  transform="matrix(0.5 0 0 0.5 0 0)">
</image>
<image style="overflow:visible;enable-background:new    ;" width="300" height="199" id="locator" xlink:href="../locator-insets/HD-29-locator.png"  transform="matrix(0.6677 0 0 0.6677 12.0013 13.2313)">
</image>
<g id="city-labels">
	<text transform="matrix(1 0 0 1 148.0332 356.877)" class="st0 st1">Fort Peck Reservation</text>
</g>
<g id="city-labels_00000105400788669956004630000008893840763378671789_">
	<text transform="matrix(1 0 0 1 417.4541 226.7803)" class="st0 st1">Plentywood</text>
</g>
<g id="city-labels_00000132784009746987029740000017145355140364952449_">
	<text transform="matrix(1 0 0 1 380.3467 196.9443)" class="st0 st1">Outlook</text>
</g>
<g id="city-labels_00000161599544102327334810000016241486555205047939_">
	<text transform="matrix(1 0 0 1 315.751 232.3418)" class="st0 st1">Flaxville</text>
</g>
<g id="city-labels_00000083807307137409620820000011632953951414339253_">
	<text transform="matrix(1 0 0 1 250.0303 236.1221)" class="st0 st1">Scobey</text>
</g>
<g id="city-labels_00000135667370571189182360000008496005214118918846_">
	<text transform="matrix(1 0 0 1 5.9326 432.2002)" class="st0 st1">Glasgow</text>
</g>
<g id="city-labels_00000083056498626399472580000007698703316050682755_">
	<text transform="matrix(1 0 0 1 449.3389 304.3418)" class="st0 st1">Medicine</text>
	<text transform="matrix(1 0 0 1 449.3389 325.9418)" class="st0 st1">Lake</text>
</g>
<g id="city-labels_00000127764576959543734790000002276506500646255511_">
	<text transform="matrix(1 0 0 1 463.3077 367.6113)" class="st0 st1">Froid</text>
</g>
<text id="district" transform="matrix(1 0 0 1 215.1168 314.0537)" class="st2 st3 st4">HD 29</text>
</svg>
