<?xml version="1.0" encoding="utf-8"?>
<!-- Generator: Adobe Illustrator 28.1.0, SVG Export Plug-In . SVG Version: 6.00 Build 0)  -->
<svg version="1.1" id="map" xmlns="http://www.w3.org/2000/svg" xmlns:xlink="http://www.w3.org/1999/xlink" x="0px" y="0px"
	 viewBox="0 0 600 600" style="enable-background:new 0 0 600 600;" xml:space="preserve">
<style type="text/css">
	.st0{font-family:'Arial-ItalicMT';}
	.st1{font-size:18px;}
	.st2{fill:#F85028;}
	.st3{font-family:'Arial-BoldMT';}
	.st4{font-size:48px;}
</style>
<image style="overflow:visible;enable-background:new    ;" width="1200" height="1200" id="base" xlink:href="../basemaps/HD-26-basemap.png"  transform="matrix(0.5 0 0 0.5 0 0)">
</image>
<image style="overflow:visible;enable-background:new    ;" width="300" height="199" id="locator" xlink:href="../locator-insets/HD-26-locator.png"  transform="matrix(0.6677 0 0 0.6677 389.8462 460.2313)">
</image>
<g id="city-labels">
	<text transform="matrix(1 0 0 1 0.5859 347.1836)" class="st0 st1">Great</text>
	<text transform="matrix(1 0 0 1 7.5859 368.7836)" class="st0 st1">Falls</text>
</g>
<g id="city-labels_00000013171007943443870240000009915975653200726677_">
	<text transform="matrix(1 0 0 1 227.4684 235.0417)" class="st0 st1">Fort</text>
	<text transform="matrix(1 0 0 1 227.4684 256.6418)" class="st0 st1">Benton</text>
</g>
<g id="city-labels_00000160164183310776003960000010095407505061962407_">
	<text transform="matrix(1 0 0 1 307.8072 329.1885)" class="st0 st1">Geraldine</text>
</g>
<g id="city-labels_00000166650426842513627750000011935210597793146004_">
	<text transform="matrix(1 0 0 1 364.1763 87.2637)" class="st0 st1">Big Sandy</text>
</g>
<text id="district" transform="matrix(1 0 0 1 223.9644 212.211)" class="st2 st3 st4">HD 26</text>
</svg>
