<?xml version="1.0" encoding="utf-8"?>
<!-- Generator: Adobe Illustrator 28.1.0, SVG Export Plug-In . SVG Version: 6.00 Build 0)  -->
<svg version="1.1" id="map" xmlns="http://www.w3.org/2000/svg" xmlns:xlink="http://www.w3.org/1999/xlink" x="0px" y="0px"
	 viewBox="0 0 600 600" style="enable-background:new 0 0 600 600;" xml:space="preserve">

<image style="overflow:visible;enable-background:new    ;" width="1200" height="1200" id="base" xlink:href="../basemaps/HD-32-basemap.png"  transform="matrix(0.5 0 0 0.5 0 0)">
</image>
<image style="overflow:visible;enable-background:new    ;" width="300" height="199" id="locator" xlink:href="../locator-insets/HD-32-locator.png"  transform="matrix(0.6677 0 0 0.6677 389.8462 460.2313)">
</image>
<g id="city-labels">
	<text transform="matrix(1 0 0 1 53.3164 275.575)" font-family="Arial-ItalicMT, Arial" font-size="18" font-style="italic" isolation="isolate">Rocky Boy’s</text>
	<text transform="matrix(1 0 0 1 53.3164 297.175)" font-family="Arial-ItalicMT, Arial" font-size="18" font-style="italic" isolation="isolate">Reservation</text>
</g>
<g id="city-labels_00000032627206628696696280000005982071347012487818_">
	<text transform="matrix(1 0 0 1 228.5967 272.1168)" font-family="Arial-ItalicMT, Arial" font-size="18" font-style="italic" isolation="isolate">Fort Belknap</text>
	<text transform="matrix(1 0 0 1 228.5967 293.7168)" font-family="Arial-ItalicMT, Arial" font-size="18" font-style="italic" isolation="isolate">Reservation</text>
</g>
<g id="city-labels_00000076588027130536413060000014730572794227783555_">
	<text transform="matrix(1 0 0 1 166.5215 227.0001)" font-family="Arial-ItalicMT, Arial" font-size="18" font-style="italic" isolation="isolate">Harlem</text>
</g>
<g id="city-labels_00000121244357028954678680000016536396223442729638_">
	<text transform="matrix(1 0 0 1 64.1655 214.1126)" font-family="Arial-ItalicMT, Arial" font-size="18" font-style="italic" isolation="isolate">Havre</text>
</g>
<text id="district" transform="matrix(1 0 0 1 229.4063 400.9727)" fill="#f85028" font-family="Arial-BoldMT, Arial" font-size="48" font-weight="700" isolation="isolate">HD 32</text>
</svg>
