<?xml version="1.0" encoding="utf-8"?>
<!-- Generator: Adobe Illustrator 28.1.0, SVG Export Plug-In . SVG Version: 6.00 Build 0)  -->
<svg version="1.1" id="map" xmlns="http://www.w3.org/2000/svg" xmlns:xlink="http://www.w3.org/1999/xlink" x="0px" y="0px"
	 viewBox="0 0 600 600" style="enable-background:new 0 0 600 600;" xml:space="preserve">
<style type="text/css">
	.st0{font-family:'Arial-ItalicMT';}
	.st1{font-size:18px;}
	.st2{fill:#F85028;}
	.st3{font-family:'Arial-BoldMT';}
	.st4{font-size:48px;}
</style>
<image style="overflow:visible;enable-background:new    ;" width="1200" height="1200" id="base" xlink:href="../basemaps/HD-41-basemap.png"  transform="matrix(0.5 0 0 0.5 0 0)">
</image>
<image style="overflow:visible;enable-background:new    ;" width="300" height="199" id="locator" xlink:href="../locator-insets/HD-41-locator.png"  transform="matrix(0.6677 0 0 0.6677 6.8462 7.2313)">
</image>
<g id="city-labels">
	<text transform="matrix(1 0 0 1 91.6309 350.292)" class="st0 st1">Crow Reservation</text>
</g>
<g id="city-labels_00000083769659542244642360000009624834299348388018_">
	<text transform="matrix(1 0 0 1 289.8813 293.5313)" class="st0 st1">Northern Cheyenne</text>
	<text transform="matrix(1 0 0 1 289.8813 315.1313)" class="st0 st1">Reservation</text>
</g>
<g id="city-labels_00000093882644046915198910000012207240782629575850_">
	<text transform="matrix(1 0 0 1 47.0469 167.2823)" class="st0 st1">Hardin</text>
</g>
<g id="city-labels_00000055695475805637212690000010957340902136598685_">
	<text transform="matrix(1 0 0 1 259.5659 257.6309)" class="st0 st1">Busby</text>
</g>
<g id="city-labels_00000000216299234999250650000011590599059118293902_">
	<text transform="matrix(1 0 0 1 341.9966 215.6612)" class="st0 st1">Lame Deer</text>
</g>
<g id="city-labels_00000157310379268963982660000001508735606912961177_">
	<text transform="matrix(1 0 0 1 464.2794 236.9083)" class="st0 st1">Ashland</text>
</g>
<text id="district" transform="matrix(1 0 0 1 271.3824 361.6339)" class="st2 st3 st4">HD 41</text>
</svg>
