<?xml version="1.0" encoding="utf-8"?>
<!-- Generator: Adobe Illustrator 28.1.0, SVG Export Plug-In . SVG Version: 6.00 Build 0)  -->
<svg version="1.1" id="map" xmlns="http://www.w3.org/2000/svg" xmlns:xlink="http://www.w3.org/1999/xlink" x="0px" y="0px"
	 viewBox="0 0 600 600" style="enable-background:new 0 0 600 600;" xml:space="preserve">
<style type="text/css">
	.st0{font-family:'Arial-ItalicMT';}
	.st1{font-size:18px;}
	.st2{fill:#F85028;}
	.st3{font-family:'Arial-BoldMT';}
	.st4{font-size:48px;}
</style>
<image style="overflow:visible;enable-background:new    ;" width="1200" height="1200" id="base" xlink:href="../basemaps/HD-69-basemap.png"  transform="matrix(0.5 0 0 0.5 0 0)">
</image>
<image style="overflow:visible;enable-background:new    ;" width="300" height="199" id="locator" xlink:href="../locator-insets/HD-69-locator.png"  transform="matrix(0.6677 0 0 0.6677 11.8462 460.2313)">
</image>
<g id="city-labels">
	<text transform="matrix(1 0 0 1 375.4824 289.877)" class="st0 st1">Ennis</text>
</g>
<g id="city-labels_00000135677068930294920450000016397060492412082074_">
	<text transform="matrix(1 0 0 1 430.0576 38.7214)" class="st0 st1">Three</text>
	<text transform="matrix(1 0 0 1 430.0576 60.3215)" class="st0 st1">Forks</text>
</g>
<g id="city-labels_00000148633645134138771390000012116946430112465030_">
	<text transform="matrix(1 0 0 1 304.1885 308.3608)" class="st0 st1">Virginia</text>
	<text transform="matrix(1 0 0 1 309.1885 329.9608)" class="st0 st1">City</text>
</g>
<g id="city-labels_00000092431070816764238670000006702465645534185380_">
	<text transform="matrix(1 0 0 1 214.647 238.915)" class="st0 st1">Sheridan</text>
</g>
<g id="city-labels_00000003069565208713673580000013954816305249906873_">
	<text transform="matrix(1 0 0 1 182.2637 181.9395)" class="st0 st1">Twin</text>
	<text transform="matrix(1 0 0 1 177.2637 203.5396)" class="st0 st1">Bridges</text>
</g>
<text id="district" transform="matrix(1 0 0 1 287.1758 190.627)" class="st2 st3 st4">HD 69</text>
</svg>
