<?xml version="1.0" encoding="utf-8"?>
<!-- Generator: Adobe Illustrator 28.1.0, SVG Export Plug-In . SVG Version: 6.00 Build 0)  -->
<svg version="1.1" id="map" xmlns="http://www.w3.org/2000/svg" xmlns:xlink="http://www.w3.org/1999/xlink" x="0px" y="0px"
	 viewBox="0 0 600 600" style="enable-background:new 0 0 600 600;" xml:space="preserve">
<style type="text/css">
	.st0{font-family:'Arial-ItalicMT';}
	.st1{font-size:18px;}
	.st2{fill:#F85028;}
	.st3{font-family:'Arial-BoldMT';}
	.st4{font-size:48px;}
</style>
<image style="overflow:visible;enable-background:new    ;" width="1200" height="1200" id="base" xlink:href="../basemaps/HD-78-basemap.png"  transform="matrix(0.5 0 0 0.5 0 0)">
</image>
<image style="overflow:visible;enable-background:new    ;" width="300" height="199" id="locator" xlink:href="../locator-insets/HD-78-locator.png"  transform="matrix(0.6677 0 0 0.6677 10.8462 460.2313)">
</image>
<g id="city-labels">
	<text transform="matrix(1 0 0 1 95.4697 72.0645)" class="st0 st1">Great</text>
	<text transform="matrix(1 0 0 1 102.4697 93.6645)" class="st0 st1">Falls</text>
</g>
<g id="city-labels_00000151516458709654204690000004214732012753484186_">
	<text transform="matrix(1 0 0 1 17.5213 343.6509)" class="st0 st1">Helena</text>
</g>
<g id="city-labels_00000152962229867972903210000003638557319179516343_">
	<text transform="matrix(1 0 0 1 211.1562 126.6611)" class="st0 st1">Belt</text>
</g>
<g id="city-labels_00000161618984136162174480000007403098496361448838_">
	<text transform="matrix(1 0 0 1 224.5056 258.2187)" class="st0 st1">Neihart</text>
</g>
<g id="city-labels_00000018919176722888011760000001277011982337211821_">
	<text transform="matrix(1 0 0 1 321.7717 195.1035)" class="st0 st1">Stanford</text>
</g>
<g id="city-labels_00000114060320564312249490000005639694491429518776_">
	<text transform="matrix(1 0 0 1 381.5864 146.6514)" class="st0 st1">Denton</text>
</g>
<g id="city-labels_00000109024380394950970130000006208244373200331189_">
	<text transform="matrix(1 0 0 1 401.8155 227.813)" class="st0 st1">Hobson</text>
</g>
<g id="city-labels_00000039103830725210324610000006649050654952669057_">
	<text transform="matrix(1 0 0 1 441.4226 253.2188)" class="st0 st1">Moore</text>
</g>
<g id="city-labels_00000151539458978408367520000008628550509148055225_">
	<text transform="matrix(1 0 0 1 401.7967 326.9657)" class="st0 st1">Judith Gap</text>
</g>
<g id="city-labels_00000093865141940932357510000011428072793108777660_">
	<text transform="matrix(1 0 0 1 393.5704 392.1417)" class="st0 st1">Harlowton</text>
</g>
<g id="city-labels_00000080173006734428567230000016994059982110253201_">
	<text transform="matrix(1 0 0 1 366.5296 551.4028)" class="st0 st1">Big Timber</text>
</g>
<g id="city-labels_00000088836780045415355610000013217820729026240403_">
	<text transform="matrix(1 0 0 1 174.9816 352.6993)" class="st0 st1">White Sulphur</text>
	<text transform="matrix(1 0 0 1 200.9816 374.2993)" class="st0 st1">Springs</text>
</g>
<text id="district" transform="matrix(1 0 0 1 267.9104 303.5813)" class="st2 st3 st4">HD 78</text>
</svg>
