<?xml version="1.0" encoding="utf-8"?>
<!-- Generator: Adobe Illustrator 28.1.0, SVG Export Plug-In . SVG Version: 6.00 Build 0)  -->
<svg version="1.1" id="map" xmlns="http://www.w3.org/2000/svg" xmlns:xlink="http://www.w3.org/1999/xlink" x="0px" y="0px"
	 viewBox="0 0 600 600" style="enable-background:new 0 0 600 600;" xml:space="preserve">
<style type="text/css">
	.st0{font-family:'Arial-ItalicMT';}
	.st1{font-size:18px;}
	.st2{fill:#F85028;}
	.st3{font-family:'Arial-BoldMT';}
	.st4{font-size:48px;}
</style>
<image style="overflow:visible;enable-background:new    ;" width="1200" height="1200" id="base" xlink:href="../basemaps/SD-16-basemap.png"  transform="matrix(0.5 0 0 0.5 0 0)">
</image>
<image style="overflow:visible;enable-background:new    ;" width="300" height="199" id="locator" xlink:href="../locator-insets/SD-16-locator.png"  transform="matrix(0.6677 0 0 0.6677 389.8462 460.2313)">
</image>
<g id="city-labels">
	<text transform="matrix(1 0 0 1 26.1172 289.4834)" class="st0 st1">Rocky Boy’s</text>
	<text transform="matrix(1 0 0 1 26.1172 311.0834)" class="st0 st1">Reservation</text>
</g>
<g id="city-labels_00000003092573224628328010000009709558065163782807_">
	<text transform="matrix(1 0 0 1 126.8364 260.7344)" class="st0 st1">Fort Belknap</text>
	<text transform="matrix(1 0 0 1 126.8364 282.3344)" class="st0 st1">Reservation</text>
</g>
<g id="city-labels_00000019650925411938150470000012573261121109769656_">
	<text transform="matrix(1 0 0 1 430.2158 223)" class="st0 st1">Fort Peck </text>
	<text transform="matrix(1 0 0 1 430.2158 244.6)" class="st0 st1">Reservation</text>
</g>
<g id="city-labels_00000008130424517361901230000015396848089651882144_">
	<text transform="matrix(1 0 0 1 498.2729 280.1416)" class="st0 st1">Poplar</text>
</g>
<g id="city-labels_00000175288898152588805180000004928373047657444539_">
	<text transform="matrix(1 0 0 1 428.0928 298.1957)" class="st0 st1">Wolf Point</text>
</g>
<text id="district" transform="matrix(1 0 0 1 170.2969 417.1289)" class="st2 st3 st4">SD 16</text>
</svg>
