<?xml version="1.0" encoding="utf-8"?>
<!-- Generator: Adobe Illustrator 28.1.0, SVG Export Plug-In . SVG Version: 6.00 Build 0)  -->
<svg version="1.1" id="map" xmlns="http://www.w3.org/2000/svg" xmlns:xlink="http://www.w3.org/1999/xlink" x="0px" y="0px"
	 viewBox="0 0 600 600" style="enable-background:new 0 0 600 600;" xml:space="preserve">

<image style="overflow:visible;enable-background:new    ;" width="1200" height="1200" id="base" xlink:href="../basemaps/SD-19-basemap.png"  transform="matrix(0.5 0 0 0.5 0 0)">
</image>
<image style="overflow:visible;enable-background:new    ;" width="300" height="199" id="locator" xlink:href="../locator-insets/SD-19-locator.png"  transform="matrix(0.6677 0 0 0.6677 389.8462 8.2313)">
</image>
<g id="city-labels">
	<text transform="matrix(1 0 0 1 157.0703 94.417)" font-family="Arial-ItalicMT, Arial" font-size="18" font-style="italic" isolation="isolate">Winifred</text>
</g>
<g id="city-labels_00000183931310132382788360000003289464728423290777_">
	<text transform="matrix(1 0 0 1 127.876 220.4463)" font-family="Arial-ItalicMT, Arial" font-size="18" font-style="italic" isolation="isolate">Lewistown</text>
</g>
<g id="city-labels_00000041987465999203162240000006545770693715535245_">
	<text transform="matrix(1 0 0 1 232.6851 230.1836)" font-family="Arial-ItalicMT, Arial" font-size="18" font-style="italic" isolation="isolate">Grass Range</text>
</g>
<g id="city-labels_00000160169258074990722910000010965280701270837662_">
	<text transform="matrix(1 0 0 1 347.4004 234.334)" font-family="Arial-ItalicMT, Arial" font-size="18" font-style="italic" isolation="isolate">Winnett</text>
</g>
<g id="city-labels_00000083068048684373658990000005040287244708806309_">
	<text transform="matrix(1 0 0 1 184.666 407.1943)" font-family="Arial-ItalicMT, Arial" font-size="18" font-style="italic" isolation="isolate">Ryegate</text>
</g>
<g id="city-labels_00000070812712440862533260000010692684662081209274_">
	<text transform="matrix(1 0 0 1 255.6743 424.6797)" font-family="Arial-ItalicMT, Arial" font-size="18" font-style="italic" isolation="isolate">Lavina</text>
</g>
<g id="city-labels_00000130609074660438582020000012716973083153837489_">
	<text transform="matrix(1 0 0 1 241.6851 465.6123)" font-family="Arial-ItalicMT, Arial" font-size="18" font-style="italic" isolation="isolate">Broadview</text>
</g>
<g id="city-labels_00000027562795436430519930000018123891828388880517_">
	<text transform="matrix(1 0 0 1 416.8906 335.3418)" font-family="Arial-ItalicMT, Arial" font-size="18" font-style="italic" isolation="isolate">Melstone</text>
</g>
<g id="city-labels_00000039839072232962116500000009604175758144954799_">
	<text transform="matrix(1 0 0 1 305.6699 377.6123)" font-family="Arial-ItalicMT, Arial" font-size="18" font-style="italic" isolation="isolate">Roundup</text>
</g>
<g id="city-labels_00000152238884468313339080000005722504098980415670_">
	<text transform="matrix(1 0 0 1 366.4995 533.708)" font-family="Arial-ItalicMT, Arial" font-size="18" font-style="italic" isolation="isolate">Billings</text>
</g>
<text id="district" transform="matrix(1 0 0 1 240.0054 309.6763)" fill="#f85028" font-family="Arial-BoldMT, Arial" font-size="48" font-weight="700" isolation="isolate">SD 19</text>
</svg>
