<?xml version="1.0" encoding="utf-8"?>
<!-- Generator: Adobe Illustrator 28.1.0, SVG Export Plug-In . SVG Version: 6.00 Build 0)  -->
<svg version="1.1" id="map" xmlns="http://www.w3.org/2000/svg" xmlns:xlink="http://www.w3.org/1999/xlink" x="0px" y="0px"
	 viewBox="0 0 600 600" style="enable-background:new 0 0 600 600;" xml:space="preserve">

<image style="overflow:visible;enable-background:new    ;" width="1200" height="1200" id="base" xlink:href="../basemaps/SD-17-basemap.png"  transform="matrix(0.5 0 0 0.5 0 0)">
</image>
<image style="overflow:visible;enable-background:new    ;" width="300" height="199" id="locator" xlink:href="../locator-insets/SD-17-locator.png"  transform="matrix(0.6677 0 0 0.6677 389.8462 460.2313)">
</image>
<g id="city-labels">
	<text transform="matrix(1 0 0 1 218.4337 151.7441)" font-family="Arial-ItalicMT, Arial" font-size="18" font-style="italic" isolation="isolate">Circle</text>
</g>
<g id="city-labels_00000129205090907146163040000007038496009979767715_">
	<text transform="matrix(1 0 0 1 265.5371 260.8564)" font-family="Arial-ItalicMT, Arial" font-size="18" font-style="italic" isolation="isolate">Terry</text>
</g>
<g id="city-labels_00000039134267169070666590000000256857072224062601_">
	<text transform="matrix(1 0 0 1 400.521 323.583)" font-family="Arial-ItalicMT, Arial" font-size="18" font-style="italic" isolation="isolate">Baker</text>
</g>
<g id="city-labels_00000084530016004328979070000005237109902901986481_">
	<text transform="matrix(1 0 0 1 355.521 410)" font-family="Arial-ItalicMT, Arial" font-size="18" font-style="italic" isolation="isolate">Ekalaka</text>
</g>
<g id="city-labels_00000070091333805887463050000006330470370976135341_">
	<text transform="matrix(1 0 0 1 253.9009 494)" font-family="Arial-ItalicMT, Arial" font-size="18" font-style="italic" isolation="isolate">Broadus</text>
</g>
<g id="city-labels_00000054257573391801780120000012720750959603614609_">
	<text transform="matrix(1 0 0 1 389.8462 216.2998)" font-family="Arial-ItalicMT, Arial" font-size="18" font-style="italic" isolation="isolate">Wibaux</text>
</g>
<g id="city-labels_00000178885272981501401320000006127768779381086374_">
	<text transform="matrix(1 0 0 1 139.3408 319.8027)" font-family="Arial-ItalicMT, Arial" font-size="18" font-style="italic" isolation="isolate">Miles City</text>
</g>
<text id="district" transform="matrix(1 0 0 1 241.6851 373.6763)" fill="#f85028" font-family="Arial-BoldMT, Arial" font-size="48" font-weight="700" isolation="isolate">SD 17</text>
</svg>
