<?xml version="1.0" encoding="utf-8"?>
<!-- Generator: Adobe Illustrator 28.1.0, SVG Export Plug-In . SVG Version: 6.00 Build 0)  -->
<svg version="1.1" id="map" xmlns="http://www.w3.org/2000/svg" xmlns:xlink="http://www.w3.org/1999/xlink" x="0px" y="0px"
	 viewBox="0 0 600 600" style="enable-background:new 0 0 600 600;" xml:space="preserve">
<style type="text/css">
	.st0{font-family:'Arial-ItalicMT';}
	.st1{font-size:18px;}
	.st2{fill:#F85028;}
	.st3{font-family:'Arial-BoldMT';}
	.st4{font-size:48px;}
</style>
<image style="overflow:visible;enable-background:new    ;" width="1200" height="1200" id="base" xlink:href="../basemaps/SD-39-basemap.png"  transform="matrix(0.5 0 0 0.5 0 0)">
</image>
<image style="overflow:visible;enable-background:new    ;" width="300" height="199" id="locator" xlink:href="../locator-insets/SD-39-locator.png"  transform="matrix(0.6677 0 0 0.6677 8.5637 6.2723)">
</image>
<g id="city-labels">
	<text transform="matrix(1 0 0 1 35.1709 317.4922)" class="st0 st1">Helena</text>
</g>
<g id="city-labels_00000072977593445291509690000008898378983617588100_">
	<text transform="matrix(1 0 0 1 195.5498 581.0117)" class="st0 st1">Bozeman</text>
</g>
<g id="city-labels_00000171678442813620935800000015180549245435009416_">
	<text transform="matrix(1 0 0 1 126.5498 532.6817)" class="st0 st1">Manhattan</text>
</g>
<g id="city-labels_00000040558043624006946840000003848111517913086354_">
	<text transform="matrix(1 0 0 1 91.6689 420.3419)" class="st0 st1">Townsend</text>
</g>
<g id="city-labels_00000016043629531208315260000000604104752830461854_">
	<text transform="matrix(1 0 0 1 195.8737 355.7268)" class="st0 st1">White Sulphur</text>
	<text transform="matrix(1 0 0 1 221.8738 377.3268)" class="st0 st1">Springs</text>
</g>
<g id="city-labels_00000043442570331755938830000007689510077539144108_">
	<text transform="matrix(1 0 0 1 392.9297 146.0859)" class="st0 st1">Denton</text>
</g>
<g id="city-labels_00000071541671155295718860000002820215532904914864_">
	<text transform="matrix(1 0 0 1 223.1336 128.7383)" class="st0 st1">Belt</text>
</g>
<g id="city-labels_00000075843893219948116140000017650966513390343815_">
	<text transform="matrix(1 0 0 1 401.7222 392.6505)" class="st0 st1">Harlowton</text>
</g>
<g id="city-labels_00000067215006917668610440000011446468222505340288_">
	<text transform="matrix(1 0 0 1 377.0654 548.2023)" class="st0 st1">Big Timber</text>
</g>
<g id="city-labels_00000115507029838186163250000016234223188987843741_">
	<text transform="matrix(1 0 0 1 407.626 326.0802)" class="st0 st1">Judith Gap</text>
</g>
<g id="city-labels_00000075124150416356531220000009299084470665089462_">
	<text transform="matrix(1 0 0 1 238.1372 250.8068)" class="st0 st1">Niehart</text>
</g>
<g id="city-labels_00000127018278654465389990000012023785390912366236_">
	<text transform="matrix(1 0 0 1 344.7969 195.9298)" class="st0 st1">Stanford</text>
</g>
<g id="city-labels_00000062153593955641578390000015829691258247624630_">
	<text transform="matrix(1 0 0 1 395.2686 236.1362)" class="st0 st1">Hobson</text>
</g>
<g id="city-labels_00000079462938847349677800000016316932791480698521_">
	<text transform="matrix(1 0 0 1 456.8838 250.8064)" class="st0 st1">Moore</text>
</g>
<text id="district" transform="matrix(1 0 0 1 241.0054 317.4922)" class="st2 st3 st4">SD 39</text>
</svg>
