<?xml version="1.0" encoding="utf-8"?>
<!-- Generator: Adobe Illustrator 28.1.0, SVG Export Plug-In . SVG Version: 6.00 Build 0)  -->
<svg version="1.1" id="map" xmlns="http://www.w3.org/2000/svg" xmlns:xlink="http://www.w3.org/1999/xlink" x="0px" y="0px"
	 viewBox="0 0 600 600" style="enable-background:new 0 0 600 600;" xml:space="preserve">
<style type="text/css">
	.st0{font-family:'Arial-ItalicMT';}
	.st1{font-size:18px;}
	.st2{fill:#F85028;}
	.st3{font-family:'Arial-BoldMT';}
	.st4{font-size:48px;}
</style>
<image style="overflow:visible;enable-background:new    ;" width="1200" height="1200" id="base" xlink:href="../basemaps/SD-38-basemap.png"  transform="matrix(0.5 0 0 0.5 0 0)">
</image>
<image style="overflow:visible;enable-background:new    ;" width="300" height="199" id="locator" xlink:href="../locator-insets/SD-38-locator.png"  transform="matrix(0.6677 0 0 0.6677 389.8462 11.2313)">
</image>
<g id="city-labels">
	<text transform="matrix(1 0 0 1 68.9341 251.7324)" class="st0 st1">Missoula</text>
</g>
<g id="city-labels_00000040546294965642883930000016305285439272647575_">
	<text transform="matrix(1 0 0 1 479.4297 326.4639)" class="st0 st1">Helena</text>
</g>
<g id="city-labels_00000093896666434439165040000009264466352325593770_">
	<text transform="matrix(1 0 0 1 305 484.7441)" class="st0 st1">Butte</text>
</g>
<g id="city-labels_00000028323755384626322350000007219248206751171237_">
	<text transform="matrix(1 0 0 1 158.8057 398.3799)" class="st0 st1">Philipsburg</text>
</g>
<g id="city-labels_00000076595409659450060510000008612287340958066857_">
	<text transform="matrix(1 0 0 1 192.7295 303.3389)" class="st0 st1">Drummond</text>
</g>
<g id="city-labels_00000034084384121589679790000018097428853510365093_">
	<text transform="matrix(1 0 0 1 210.7295 204.542)" class="st0 st1">Ovando</text>
</g>
<g id="city-labels_00000116938055024639280820000011281776064160818833_">
	<text transform="matrix(1 0 0 1 179.4121 148.7715)" class="st0 st1">Seeley</text>
	<text transform="matrix(1 0 0 1 179.4121 170.3715)" class="st0 st1">Lake</text>
</g>
<g id="city-labels_00000117653686801467376220000012905682786047010207_">
	<text transform="matrix(1 0 0 1 265.3643 389.038)" class="st0 st1">Deer Lodge</text>
</g>
<g id="city-labels_00000133506852007492491420000000013587812202368398_">
	<text transform="matrix(1 0 0 1 395.336 435.8799)" class="st0 st1">Boulder</text>
</g>
<text id="district" transform="matrix(1 0 0 1 312.7652 226.5391)" class="st2 st3 st4">SD 38</text>
</svg>
