<?xml version="1.0" encoding="utf-8"?>
<!-- Generator: Adobe Illustrator 28.1.0, SVG Export Plug-In . SVG Version: 6.00 Build 0)  -->
<svg version="1.1" id="map" xmlns="http://www.w3.org/2000/svg" xmlns:xlink="http://www.w3.org/1999/xlink" x="0px" y="0px"
	 viewBox="0 0 600 600" style="enable-background:new 0 0 600 600;" xml:space="preserve">
<style type="text/css">
	.st0{font-family:'Arial-ItalicMT';}
	.st1{font-size:18px;}
	.st2{fill:#F85028;}
	.st3{font-family:'Arial-BoldMT';}
	.st4{font-size:48px;}
</style>
<image style="overflow:visible;enable-background:new    ;" width="1200" height="1200" id="base" xlink:href="../basemaps/SD-9-basemap.png"  transform="matrix(0.5 0 0 0.5 0 0)">
</image>
<image style="overflow:visible;enable-background:new    ;" width="300" height="199" id="locator" xlink:href="../locator-insets/SD-9-locator.png"  transform="matrix(0.6677 0 0 0.6677 8.8462 13.2313)">
</image>
<g id="city-labels">
	<text transform="matrix(1 0 0 1 328.874 146.1036)" class="st0 st1">Shelby</text>
</g>
<g id="city-labels_00000167371389263146138890000014106451819968720827_">
	<text transform="matrix(1 0 0 1 316.0805 222.3643)" class="st0 st1">Conrad</text>
</g>
<g id="city-labels_00000042004051294557160240000014011049778130032568_">
	<text transform="matrix(1 0 0 1 264.5522 303.9999)" class="st0 st1">Choteau</text>
</g>
<g id="city-labels_00000033337550773292653410000007840299418918390950_">
	<text transform="matrix(1 0 0 1 388.8467 361.5284)" class="st0 st1">Great Falls</text>
</g>
<g id="city-labels_00000090997531216312741320000003202559506302201747_">
	<text transform="matrix(1 0 0 1 344.1328 577.3419)" class="st0 st1">Helena</text>
</g>
<g id="city-labels_00000022522497482015414880000016467266433303180200_">
	<text transform="matrix(1 0 0 1 300 348.4249)" class="st0 st1">Shelby</text>
</g>
<g id="city-labels_00000156569582274630481100000006106353612507220135_">
	<text transform="matrix(1 0 0 1 213.915 494.4844)" class="st0 st1">Lincoln</text>
</g>
<text id="district" transform="matrix(1 0 0 1 249.6665 281.5469)" class="st2 st3 st4">SD 9</text>
</svg>
